<svg xmlns="http://www.w3.org/2000/svg" xmlns:xlink="http://www.w3.org/1999/xlink" width="215" height="36" viewBox="0 0 215 36">
    <defs>
        <linearGradient id="a" x1="-.054" y1=".5" x2="12.194" y2=".5" gradientUnits="objectBoundingBox">
            <stop offset="0" stop-color="#f6ad46"/>
            <stop offset="1" stop-color="#ed6f31"/>
        </linearGradient>
        <linearGradient id="b" x1="-1.131" y1=".5" x2="11.073" y2=".5" xlink:href="#a"/>
        <linearGradient id="c" x1="-5.559" y1=".5" x2="4.333" y2=".5" xlink:href="#a"/>
        <linearGradient id="d" x1="-10.541" y1=".5" x2="1.004" y2=".5" xlink:href="#a"/>
        <linearGradient id="e" x1="-32.668" y1=".5" x2="15.63" y2=".5" xlink:href="#a"/>
        <linearGradient id="f" x1="-1.581" y1=".5" x2="6.85" y2=".5" xlink:href="#a"/>
        <linearGradient id="g" x1="-5.221" y1=".5" x2="7.114" y2=".5" xlink:href="#a"/>
        <linearGradient id="h" x1="-10.064" y1=".5" x2="2.272" y2=".5" xlink:href="#a"/>
        <linearGradient id="i" x1="-8.251" y1=".5" x2="3.294" y2=".5" xlink:href="#a"/>
        <linearGradient id="j" x1="-3.701" y1=".5" x2="7.845" y2=".5" xlink:href="#a"/>
    </defs>
    <g data-name="그룹 8269">
        <path data-name="사각형 10722" style="fill:none" d="M0 0h215v36H0z"/>
        <g data-name="그룹 2">
            <g data-name="그룹 1">
                <path data-name="패스 1" d="M315.027 300.6H305.5v-16.147a1.85 1.85 0 0 0-.59-1.383 2.095 2.095 0 0 0-2.859 0 1.849 1.849 0 0 0-.589 1.382v18.088a1.87 1.87 0 0 0 .567 1.375 1.993 1.993 0 0 0 1.438.572h11.557a2.013 2.013 0 0 0 1.444-.564 1.916 1.916 0 0 0 0-2.764 2.016 2.016 0 0 0-1.441-.559z" transform="translate(-285.465 -275.949)" style="fill:url(#a)"/>
                <path data-name="패스 2" d="M334.974 291.539a7.625 7.625 0 0 0-4.014-1.033 8.252 8.252 0 0 0-4.185 1.07 7.574 7.574 0 0 0-2.9 2.989 8.863 8.863 0 0 0-1.033 4.284 8.425 8.425 0 0 0 1.1 4.284A7.8 7.8 0 0 0 327 306.1a9.108 9.108 0 0 0 7.261.557 8.309 8.309 0 0 0 2.522-1.315 1.586 1.586 0 0 0 .679-1.3 1.9 1.9 0 0 0-1.921-1.809 2.012 2.012 0 0 0-1.274.426 4.622 4.622 0 0 1-1.327.665 5.084 5.084 0 0 1-4.777-.792 4.22 4.22 0 0 1-1.416-2.123h9.882a1.846 1.846 0 0 0 1.324-.51 1.757 1.757 0 0 0 .541-1.3 9.363 9.363 0 0 0-.9-4.165 6.858 6.858 0 0 0-2.62-2.895zm-.333 5.471h-7.857a4.045 4.045 0 0 1 4.176-2.941 3.507 3.507 0 0 1 2.581.952 4.065 4.065 0 0 1 1.1 1.989z" transform="translate(-289.981 -278.623)" style="fill:url(#b)"/>
                <path data-name="패스 3" d="M444.141 286.439a7.089 7.089 0 0 1 3.7-1.011 7.5 7.5 0 0 1 2.6.375 7.657 7.657 0 0 1 2.082 1.265 2.1 2.1 0 0 0 2.667-.018 1.664 1.664 0 0 0 .6-1.3 2.038 2.038 0 0 0-.157-.818 1.793 1.793 0 0 0-.618-.713 11.742 11.742 0 0 0-3.307-1.855 11.939 11.939 0 0 0-3.867-.568 11.327 11.327 0 0 0-5.758 1.512 11.381 11.381 0 0 0-4.1 15.444 11.016 11.016 0 0 0 4.1 4.086 11.412 11.412 0 0 0 5.756 1.5 11.552 11.552 0 0 0 7.249-2.49 1.861 1.861 0 0 0 .618-1.384 1.84 1.84 0 0 0-.5-1.328 1.937 1.937 0 0 0-2.576-.107 8.134 8.134 0 0 1-4.787 1.654 7.082 7.082 0 0 1-3.7-1.012 7.743 7.743 0 0 1 0-13.231z" transform="translate(-318.659 -275.799)" style="fill:url(#c)"/>
                <path data-name="패스 4" d="M537.474 282.9a2.193 2.193 0 0 0-2.867-.005 1.815 1.815 0 0 0-.581 1.389v5.866a7.475 7.475 0 0 0-1.54-.942 7.747 7.747 0 0 0-3.266-.7 7.669 7.669 0 0 0-3.949 1.045 7.468 7.468 0 0 0-2.776 2.872 8.265 8.265 0 0 0-1 4.042 7.767 7.767 0 0 0 4.074 6.936 8.626 8.626 0 0 0 4.212 1.05 8.467 8.467 0 0 0 4.187-1.052 7.958 7.958 0 0 0 2.975-2.875 7.779 7.779 0 0 0 1.1-4.059v-12.182a1.841 1.841 0 0 0-.569-1.385zM532 300.365a4.6 4.6 0 0 1-4.449 0 4.246 4.246 0 0 1-1.577-1.6 4.567 4.567 0 0 1-.585-2.3 4.505 4.505 0 0 1 .584-2.283 4.27 4.27 0 0 1 1.579-1.583 4.595 4.595 0 0 1 4.45 0 4.11 4.11 0 0 1 1.562 1.579 4.586 4.586 0 0 1 .573 2.287 4.665 4.665 0 0 1-.573 2.3 4.1 4.1 0 0 1-1.561 1.59z" transform="translate(-339.438 -275.919)" style="fill:url(#d)"/>
                <path data-name="패스 5" d="M467.585 282.9a2.137 2.137 0 0 0-2.832 0 1.808 1.808 0 0 0-.56 1.355v18.306a1.812 1.812 0 0 0 .562 1.356 2.138 2.138 0 0 0 2.832 0 1.806 1.806 0 0 0 .56-1.355v-18.303a1.812 1.812 0 0 0-.562-1.359z" transform="translate(-325.008 -275.919)" style="fill:url(#e)"/>
                <path data-name="패스 6" d="M368.455 296.956a6.658 6.658 0 0 0-11.317-4.545 6.658 6.658 0 0 0-11.317 4.545h-.011v8.2a2.005 2.005 0 1 0 4.01 0v-8.2a2.657 2.657 0 0 1 5.313 0v8.2a2.005 2.005 0 1 0 4.01 0v-8.2a2.657 2.657 0 0 1 5.313 0v8.2a2 2 0 1 0 4.01 0v-8.2z" transform="translate(-296.398 -278.623)" style="fill:url(#f)"/>
                <path data-name="패스 7" d="M418.368 298.03a7.734 7.734 0 0 0-15.462 0h-.01v7.126a2.005 2.005 0 1 0 4.01 0v-7.126a3.731 3.731 0 0 1 7.462 0v7.126a2.005 2.005 0 1 0 4.011 0v-7.126z" transform="translate(-310.325 -278.623)" style="fill:url(#g)"/>
                <path data-name="패스 8" d="M497.966 299.637a7.733 7.733 0 0 0 15.461 0h.011v-7.126a2 2 0 1 0-4.01 0v7.126a3.732 3.732 0 0 1-7.463 0v-7.126a2 2 0 1 0-4.01 0v7.126z" transform="translate(-334.467 -278.623)" style="fill:url(#h)"/>
                <path data-name="패스 9" d="M488.943 294.151a7.732 7.732 0 0 0-2.956-2.97 7.97 7.97 0 0 0-1.8-.736l.015-.007a1.458 1.458 0 0 1-1.126-.9 1.457 1.457 0 0 0-2.681.009 1.456 1.456 0 0 1-.974.866h-.023a8.077 8.077 0 0 0-1.922.768 7.6 7.6 0 0 0-2.958 2.973 9.272 9.272 0 0 0 0 8.577 7.6 7.6 0 0 0 2.958 2.974 8.048 8.048 0 0 0 1.918.766h.027a1.454 1.454 0 0 1 .973.865 1.458 1.458 0 0 0 2.682.01 1.457 1.457 0 0 1 1.126-.9h-.006a7.964 7.964 0 0 0 1.822-.739 7.632 7.632 0 0 0 2.943-2.973 9.232 9.232 0 0 0-.015-8.58zm-3.394 6.727a4.022 4.022 0 0 1-1.541 1.627 4.621 4.621 0 0 1-4.516 0 4.123 4.123 0 0 1-1.558-1.632 5.02 5.02 0 0 1-.572-2.418 5.106 5.106 0 0 1 .573-2.434 4.1 4.1 0 0 1 1.556-1.644 4.626 4.626 0 0 1 4.516 0 4.005 4.005 0 0 1 1.54 1.64 5.213 5.213 0 0 1 .562 2.438 5.122 5.122 0 0 1-.56 2.424z" transform="translate(-327.657 -278.232)" style="fill:url(#i)"/>
                <path data-name="패스 10" d="M393.493 294.151a7.725 7.725 0 0 0-2.955-2.97 7.963 7.963 0 0 0-1.8-.736l.016-.007a1.46 1.46 0 0 1-1.126-.9 1.457 1.457 0 0 0-2.681.009 1.455 1.455 0 0 1-.973.866h-.024a8.1 8.1 0 0 0-1.922.768 7.6 7.6 0 0 0-2.958 2.973 9.278 9.278 0 0 0 0 8.577 7.6 7.6 0 0 0 2.958 2.974 8.052 8.052 0 0 0 1.918.766h.028a1.455 1.455 0 0 1 .973.865 1.457 1.457 0 0 0 2.681.01 1.458 1.458 0 0 1 1.126-.9h-.006a7.955 7.955 0 0 0 1.823-.739 7.63 7.63 0 0 0 2.942-2.973 9.226 9.226 0 0 0-.015-8.58zm-3.394 6.727a4.02 4.02 0 0 1-1.54 1.627 4.621 4.621 0 0 1-4.516 0 4.122 4.122 0 0 1-1.558-1.632 5.019 5.019 0 0 1-.572-2.418 5.106 5.106 0 0 1 .573-2.434 4.094 4.094 0 0 1 1.556-1.644 4.626 4.626 0 0 1 4.516 0 4 4 0 0 1 1.54 1.64 5.2 5.2 0 0 1 .562 2.438 5.113 5.113 0 0 1-.56 2.424z" transform="translate(-304.243 -278.232)" style="fill:url(#j)"/>
            </g>
        </g>
    </g>
</svg>
